<svg width="54" height="54" viewBox="0 0 54 54" fill="none" xmlns="http://www.w3.org/2000/svg">
<path fill-rule="evenodd" clip-rule="evenodd" d="M16.3335 8.33325C16.3335 6.21152 17.1763 4.17669 18.6766 2.6764C20.1769 1.17611 22.2118 0.333252 24.3335 0.333252H45.6668C47.7886 0.333252 49.8234 1.17611 51.3237 2.6764C52.824 4.17669 53.6668 6.21152 53.6668 8.33325V45.6666C53.6668 47.7883 52.824 49.8231 51.3237 51.3234C49.8234 52.8237 47.7886 53.6666 45.6668 53.6666H24.3335C22.2118 53.6666 20.1769 52.8237 18.6766 51.3234C17.1763 49.8231 16.3335 47.7883 16.3335 45.6666V8.33325ZM24.3335 5.66658C23.6263 5.66658 22.948 5.94754 22.4479 6.44763C21.9478 6.94773 21.6668 7.62601 21.6668 8.33325V45.6666C21.6668 46.3738 21.9478 47.0521 22.4479 47.5522C22.948 48.0523 23.6263 48.3332 24.3335 48.3332H45.6668C46.3741 48.3332 47.0524 48.0523 47.5524 47.5522C48.0525 47.0521 48.3335 46.3738 48.3335 45.6666V8.33325C48.3335 7.62601 48.0525 6.94773 47.5524 6.44763C47.0524 5.94754 46.3741 5.66658 45.6668 5.66658H24.3335Z" fill="#037F3F"/>
<path fill-rule="evenodd" clip-rule="evenodd" d="M0.333496 24.3333C0.333496 22.2115 1.17635 20.1767 2.67664 18.6764C4.17693 17.1761 6.21176 16.3333 8.3335 16.3333H20.3335V21.6666H8.3335C7.62625 21.6666 6.94798 21.9475 6.44788 22.4476C5.94778 22.9477 5.66683 23.626 5.66683 24.3333V45.6666C5.66683 46.3738 5.94778 47.0521 6.44788 47.5522C6.94798 48.0523 7.62625 48.3333 8.3335 48.3333H33.6668V53.6666H8.3335C6.21176 53.6666 4.17693 52.8237 2.67664 51.3234C1.17635 49.8231 0.333496 47.7883 0.333496 45.6666V24.3333Z" fill="#037F3F"/>
<path fill-rule="evenodd" clip-rule="evenodd" d="M27 40.3333C27 38.9188 27.5619 37.5623 28.5621 36.5621C29.5623 35.5619 30.9188 35 32.3333 35H37.6667C39.0812 35 40.4377 35.5619 41.4379 36.5621C42.4381 37.5623 43 38.9188 43 40.3333V48.3333H37.6667V40.3333H32.3333V48.3333H27V40.3333Z" fill="#037F3F"/>
<path d="M27.0002 10.9999C27.0002 10.2927 27.2811 9.6144 27.7812 9.1143C28.2813 8.6142 28.9596 8.33325 29.6668 8.33325C30.3741 8.33325 31.0524 8.6142 31.5524 9.1143C32.0525 9.6144 32.3335 10.2927 32.3335 10.9999V13.6666C32.3335 14.3738 32.0525 15.0521 31.5524 15.5522C31.0524 16.0523 30.3741 16.3333 29.6668 16.3333C28.9596 16.3333 28.2813 16.0523 27.7812 15.5522C27.2811 15.0521 27.0002 14.3738 27.0002 13.6666V10.9999ZM27.0002 24.3333C27.0002 23.626 27.2811 22.9477 27.7812 22.4476C28.2813 21.9475 28.9596 21.6666 29.6668 21.6666C30.3741 21.6666 31.0524 21.9475 31.5524 22.4476C32.0525 22.9477 32.3335 23.626 32.3335 24.3333V26.9999C32.3335 27.7072 32.0525 28.3854 31.5524 28.8855C31.0524 29.3856 30.3741 29.6666 29.6668 29.6666C28.9596 29.6666 28.2813 29.3856 27.7812 28.8855C27.2811 28.3854 27.0002 27.7072 27.0002 26.9999V24.3333ZM8.3335 34.9999C8.3335 34.2927 8.61445 33.6144 9.11455 33.1143C9.61464 32.6142 10.2929 32.3333 11.0002 32.3333C11.7074 32.3333 12.3857 32.6142 12.8858 33.1143C13.3859 33.6144 13.6668 34.2927 13.6668 34.9999V37.6666C13.6668 38.3738 13.3859 39.0521 12.8858 39.5522C12.3857 40.0523 11.7074 40.3333 11.0002 40.3333C10.2929 40.3333 9.61464 40.0523 9.11455 39.5522C8.61445 39.0521 8.3335 38.3738 8.3335 37.6666V34.9999ZM37.6668 10.9999C37.6668 10.2927 37.9478 9.6144 38.4479 9.1143C38.948 8.6142 39.6263 8.33325 40.3335 8.33325C41.0407 8.33325 41.719 8.6142 42.2191 9.1143C42.7192 9.6144 43.0002 10.2927 43.0002 10.9999V13.6666C43.0002 14.3738 42.7192 15.0521 42.2191 15.5522C41.719 16.0523 41.0407 16.3333 40.3335 16.3333C39.6263 16.3333 38.948 16.0523 38.4479 15.5522C37.9478 15.0521 37.6668 14.3738 37.6668 13.6666V10.9999ZM37.6668 24.3333C37.6668 23.626 37.9478 22.9477 38.4479 22.4476C38.948 21.9475 39.6263 21.6666 40.3335 21.6666C41.0407 21.6666 41.719 21.9475 42.2191 22.4476C42.7192 22.9477 43.0002 23.626 43.0002 24.3333V26.9999C43.0002 27.7072 42.7192 28.3854 42.2191 28.8855C41.719 29.3856 41.0407 29.6666 40.3335 29.6666C39.6263 29.6666 38.948 29.3856 38.4479 28.8855C37.9478 28.3854 37.6668 27.7072 37.6668 26.9999V24.3333Z" fill="#037F3F"/>
</svg>
